<?xml version="1.0" encoding="UTF-8" standalone="no"?>
<!DOCTYPE svg PUBLIC "-//W3C//DTD SVG 1.1//EN"
 "http://www.w3.org/Graphics/SVG/1.1/DTD/svg11.dtd">
<!-- Generated by graphviz version 2.40.1 (20161225.0304)
 -->
<!-- Title: %3 Pages: 1 -->
<svg width="201pt" height="695pt"
 viewBox="0.00 0.00 200.55 695.04" xmlns="http://www.w3.org/2000/svg" xmlns:xlink="http://www.w3.org/1999/xlink">
<g id="graph0" class="graph" transform="scale(1 1) rotate(0) translate(4 691.0352)">
<title>%3</title>
<polygon fill="#ffffff" stroke="transparent" points="-4,4 -4,-691.0352 196.5525,-691.0352 196.5525,4 -4,4"/>
<!-- SUBST -->
<g id="node1" class="node">
<title>SUBST</title>
<polygon fill="#ff0000" stroke="#ff0000" points="139.785,-540 80.6374,-540 80.6374,-504 139.785,-504 139.785,-540"/>
<text text-anchor="middle" x="110.2112" y="-524.8" font-family="Times,serif" font-size="14.00" fill="#000000">SUBST</text>
<text text-anchor="middle" x="110.2112" y="-510.8" font-family="Times,serif" font-size="14.00" fill="#000000">&lt;n&gt;:</text>
</g>
<!-- N&#45;INFL&#45;COMMON -->
<g id="node8" class="node">
<title>N&#45;INFL&#45;COMMON</title>
<polygon fill="#ff0000" stroke="#ff0000" points="175.8216,-468 44.6008,-468 44.6008,-432 175.8216,-432 175.8216,-468"/>
<text text-anchor="middle" x="110.2112" y="-445.8" font-family="Times,serif" font-size="14.00" fill="#000000">N&#45;INFL&#45;COMMON</text>
</g>
<!-- SUBST&#45;&gt;N&#45;INFL&#45;COMMON -->
<g id="edge1" class="edge">
<title>SUBST&#45;&gt;N&#45;INFL&#45;COMMON</title>
<path fill="none" stroke="#ff0000" d="M110.2112,-503.8314C110.2112,-499.0926 110.2112,-493.8025 110.2112,-488.4398"/>
<polygon fill="#ff0000" stroke="#ff0000" points="117.2113,-488.4132 110.2112,-468.4133 103.2113,-488.4133 117.2113,-488.4132"/>
</g>
<!-- CLIT -->
<g id="node2" class="node">
<title>CLIT</title>
<polygon fill="#ff0000" stroke="#ff0000" points="87.283,-36 27.1394,-36 27.1394,0 87.283,0 87.283,-36"/>
<text text-anchor="middle" x="57.2112" y="-20.8" font-family="Times,serif" font-size="14.00" fill="#000000">CLIT</text>
<text text-anchor="middle" x="57.2112" y="-6.8" font-family="Times,serif" font-size="14.00" fill="#000000">&lt;nom&gt;:</text>
</g>
<!-- CASE -->
<g id="node3" class="node">
<title>CASE</title>
<polygon fill="#ff0000" stroke="#ff0000" points="146.2112,-108 92.2112,-108 92.2112,-72 146.2112,-72 146.2112,-108"/>
<text text-anchor="middle" x="119.2112" y="-85.8" font-family="Times,serif" font-size="14.00" fill="#000000">CASE</text>
</g>
<!-- CASE&#45;&gt;CLIT -->
<g id="edge2" class="edge">
<title>CASE&#45;&gt;CLIT</title>
<path fill="none" stroke="#ff0000" d="M103.566,-71.8314C98.3196,-65.7387 92.2881,-58.7345 86.3483,-51.8366"/>
<polygon fill="#ff0000" stroke="#ff0000" points="91.422,-47.001 73.0671,-36.4133 80.8132,-56.1363 91.422,-47.001"/>
</g>
<!-- ADJ&#45;DAGI -->
<g id="node4" class="node">
<title>ADJ&#45;DAGI</title>
<polygon fill="none" stroke="#000000" points="98.0361,-180 16.3863,-180 16.3863,-144 98.0361,-144 98.0361,-180"/>
<text text-anchor="middle" x="57.2112" y="-157.8" font-family="Times,serif" font-size="14.00" fill="#000000">ADJ&#45;DAGI</text>
</g>
<!-- ADJ&#45;DAGI&#45;&gt;CLIT -->
<g id="edge4" class="edge">
<title>ADJ&#45;DAGI&#45;&gt;CLIT</title>
<path fill="none" stroke="#000000" d="M57.2112,-143.7623C57.2112,-119.201 57.2112,-75.2474 57.2112,-46.3541"/>
<polygon fill="#000000" stroke="#000000" points="60.7113,-46.0896 57.2112,-36.0896 53.7113,-46.0897 60.7113,-46.0896"/>
</g>
<!-- ADJ&#45;DAGI&#45;&gt;CASE -->
<g id="edge3" class="edge">
<title>ADJ&#45;DAGI&#45;&gt;CASE</title>
<path fill="none" stroke="#000000" d="M72.8564,-143.8314C80.0703,-135.454 88.7682,-125.3531 96.6717,-116.1749"/>
<polygon fill="#000000" stroke="#000000" points="99.4823,-118.2748 103.3553,-108.4133 94.1779,-113.7071 99.4823,-118.2748"/>
</g>
<!-- GENPOSS&#45;ETC -->
<g id="node5" class="node">
<title>GENPOSS&#45;ETC</title>
<polygon fill="none" stroke="#000000" points="124.0565,-252 14.3659,-252 14.3659,-216 124.0565,-216 124.0565,-252"/>
<text text-anchor="middle" x="69.2112" y="-229.8" font-family="Times,serif" font-size="14.00" fill="#000000">GENPOSS&#45;ETC</text>
</g>
<!-- GENPOSS&#45;ETC&#45;&gt;CLIT -->
<g id="edge7" class="edge">
<title>GENPOSS&#45;ETC&#45;&gt;CLIT</title>
<path fill="none" stroke="#000000" d="M38.7154,-215.7757C26.529,-206.7056 13.834,-194.5508 7.2112,-180 -13.6308,-134.2084 15.6501,-77.3442 37.4121,-44.6083"/>
<polygon fill="#000000" stroke="#000000" points="40.5193,-46.2669 43.3028,-36.0442 34.7519,-42.2998 40.5193,-46.2669"/>
</g>
<!-- GENPOSS&#45;ETC&#45;&gt;CASE -->
<g id="edge5" class="edge">
<title>GENPOSS&#45;ETC&#45;&gt;CASE</title>
<path fill="none" stroke="#000000" d="M85.3583,-215.8086C93.2472,-205.8991 102.1163,-193.0245 107.2112,-180 114.9037,-160.335 117.8315,-136.6072 118.8747,-118.453"/>
<polygon fill="#000000" stroke="#000000" points="122.3816,-118.3556 119.2997,-108.2189 115.3877,-118.065 122.3816,-118.3556"/>
</g>
<!-- GENPOSS&#45;ETC&#45;&gt;ADJ&#45;DAGI -->
<g id="edge6" class="edge">
<title>GENPOSS&#45;ETC&#45;&gt;ADJ&#45;DAGI</title>
<path fill="none" stroke="#000000" d="M66.1831,-215.8314C64.8997,-208.131 63.3736,-198.9743 61.9473,-190.4166"/>
<polygon fill="#000000" stroke="#000000" points="65.3765,-189.7018 60.2801,-180.4133 58.4718,-190.8526 65.3765,-189.7018"/>
</g>
<!-- CASE&#45;ETC -->
<g id="node6" class="node">
<title>CASE&#45;ETC</title>
<polygon fill="#ff0000" stroke="#ff0000" points="151.6009,-324 68.8215,-324 68.8215,-288 151.6009,-288 151.6009,-324"/>
<text text-anchor="middle" x="110.2112" y="-301.8" font-family="Times,serif" font-size="14.00" fill="#000000">CASE&#45;ETC</text>
</g>
<!-- CASE&#45;ETC&#45;&gt;CASE -->
<g id="edge8" class="edge">
<title>CASE&#45;ETC&#45;&gt;CASE</title>
<path fill="none" stroke="#ff0000" d="M120.2348,-287.6094C125.2093,-277.4366 130.6845,-264.3803 133.2112,-252 141.7834,-209.9984 135.2602,-160.8252 128.5337,-127.7666"/>
<polygon fill="#ff0000" stroke="#ff0000" points="135.3459,-126.154 124.1342,-108.1735 121.6861,-129.2213 135.3459,-126.154"/>
</g>
<!-- CASE&#45;ETC&#45;&gt;GENPOSS&#45;ETC -->
<g id="edge9" class="edge">
<title>CASE&#45;ETC&#45;&gt;GENPOSS&#45;ETC</title>
<path fill="none" stroke="#000000" d="M99.8652,-287.8314C95.2875,-279.7925 89.8061,-270.1666 84.7524,-261.2918"/>
<polygon fill="#000000" stroke="#000000" points="87.6864,-259.3712 79.6965,-252.4133 81.6035,-262.8351 87.6864,-259.3712"/>
</g>
<!-- POSS&#45;REAL -->
<g id="node7" class="node">
<title>POSS&#45;REAL</title>
<polygon fill="#ff0000" stroke="#ff0000" points="192.3944,-396 102.028,-396 102.028,-360 192.3944,-360 192.3944,-396"/>
<text text-anchor="middle" x="147.2112" y="-373.8" font-family="Times,serif" font-size="14.00" fill="#000000">POSS&#45;REAL</text>
</g>
<!-- POSS&#45;REAL&#45;&gt;CASE&#45;ETC -->
<g id="edge10" class="edge">
<title>POSS&#45;REAL&#45;&gt;CASE&#45;ETC</title>
<path fill="none" stroke="#ff0000" d="M137.8745,-359.8314C135.135,-354.5003 132.0367,-348.4713 128.9303,-342.4263"/>
<polygon fill="#ff0000" stroke="#ff0000" points="135.041,-339.0024 119.6736,-324.4133 122.589,-345.4014 135.041,-339.0024"/>
</g>
<!-- N&#45;INFL&#45;COMMON&#45;&gt;CASE&#45;ETC -->
<g id="edge12" class="edge">
<title>N&#45;INFL&#45;COMMON&#45;&gt;CASE&#45;ETC</title>
<path fill="none" stroke="#ff0000" d="M102.9673,-431.8366C99.24,-421.513 95.0924,-408.2403 93.2112,-396 90.7807,-380.1857 90.7807,-375.8143 93.2112,-360 94.0489,-354.5492 95.3361,-348.8937 96.8354,-343.3851"/>
<polygon fill="#ff0000" stroke="#ff0000" points="103.5578,-345.3448 102.9673,-324.1634 90.22,-341.0899 103.5578,-345.3448"/>
</g>
<!-- N&#45;INFL&#45;COMMON&#45;&gt;POSS&#45;REAL -->
<g id="edge11" class="edge">
<title>N&#45;INFL&#45;COMMON&#45;&gt;POSS&#45;REAL</title>
<path fill="none" stroke="#ff0000" d="M119.5479,-431.8314C122.2874,-426.5003 125.3857,-420.4713 128.4921,-414.4263"/>
<polygon fill="#ff0000" stroke="#ff0000" points="134.8334,-417.4014 137.7488,-396.4133 122.3814,-411.0024 134.8334,-417.4014"/>
</g>
<!-- NLEX -->
<g id="node9" class="node">
<title>NLEX</title>
<polygon fill="#ff0000" stroke="#ff0000" points="139.7511,-615.0528 80.6713,-615.0528 80.6713,-575.9824 139.7511,-575.9824 139.7511,-615.0528"/>
<text text-anchor="middle" x="110.2112" y="-599.8352" font-family="Times,serif" font-size="14.00" fill="#000000">NLEX</text>
<text text-anchor="middle" x="110.2112" y="-585.8352" font-family="Times,serif" font-size="14.00" fill="#000000">аҫт:аҫт</text>
</g>
<!-- NLEX&#45;&gt;SUBST -->
<g id="edge13" class="edge">
<title>NLEX&#45;&gt;SUBST</title>
<path fill="none" stroke="#ff0000" d="M110.2112,-575.8162C110.2112,-570.9781 110.2112,-565.6335 110.2112,-560.2461"/>
<polygon fill="#ff0000" stroke="#ff0000" points="117.2113,-560.2407 110.2112,-540.2408 103.2113,-560.2408 117.2113,-560.2407"/>
</g>
<!-- Nouns -->
<g id="node10" class="node">
<title>Nouns</title>
<polygon fill="#ff0000" stroke="#ff0000" points="137.2112,-687.0352 83.2112,-687.0352 83.2112,-651.0352 137.2112,-651.0352 137.2112,-687.0352"/>
<text text-anchor="middle" x="110.2112" y="-664.8352" font-family="Times,serif" font-size="14.00" fill="#000000">Nouns</text>
</g>
<!-- Nouns&#45;&gt;NLEX -->
<g id="edge14" class="edge">
<title>Nouns&#45;&gt;NLEX</title>
<path fill="none" stroke="#ff0000" d="M110.2112,-650.8623C110.2112,-646.1371 110.2112,-640.856 110.2112,-635.4828"/>
<polygon fill="#ff0000" stroke="#ff0000" points="117.2113,-635.2869 110.2112,-615.2869 103.2113,-635.287 117.2113,-635.2869"/>
</g>
</g>
</svg>
